<?xml version="1.0" standalone="no"?>
<!DOCTYPE svg PUBLIC "-//W3C//DTD SVG 20010904//EN"
 "http://www.w3.org/TR/2001/REC-SVG-20010904/DTD/svg10.dtd">
<svg version="1.0" xmlns="http://www.w3.org/2000/svg"
 width="356.000000pt" height="356.000000pt" viewBox="0 0 356.000000 356.000000"
 preserveAspectRatio="xMidYMid meet">
<metadata>
Created by potrace 1.11, written by Peter Selinger 2001-2013
</metadata>
<g transform="translate(0.000000,356.000000) scale(0.100000,-0.100000)"
fill="#000000" stroke="none">
<path d="M1315 3285 c-258 -150 -468 -276 -465 -281 3 -5 157 -100 343 -210
l339 -202 129 74 c114 66 132 73 152 63 12 -7 271 -156 575 -331 304 -175 559
-321 567 -325 13 -5 15 45 13 402 l-3 407 -580 335 c-319 185 -584 337 -590
338 -5 2 -221 -120 -480 -270z"/>
<path d="M600 2443 l0 -408 1152 -665 c633 -366 1166 -673 1185 -683 l33 -17
0 408 0 409 -1176 679 c-647 374 -1180 681 -1185 682 -5 2 -9 -175 -9 -405z"/>
<path d="M600 1093 l0 -408 587 -338 586 -338 476 275 c262 151 475 278 475
282 -2 9 -664 414 -677 414 -4 0 -67 -34 -139 -75 -72 -42 -137 -74 -144 -71
-6 2 -261 148 -565 324 -305 175 -564 324 -576 331 l-23 12 0 -408z"/>
</g>
</svg>
